<svg xmlns="http://www.w3.org/2000/svg" viewBox="0 0 426.94 760.59"><g id="Layer_2" data-name="Layer 2"><g id="Layer_2-2" data-name="Layer 2"><path d="M217.31,6.65l97.13,111a19.47,19.47,0,0,1-1,26.75h0A19.49,19.49,0,0,1,292,148.34L155.37,88.78a19.49,19.49,0,0,1-7.67-29.73L187.19,7.62A19.49,19.49,0,0,1,217.31,6.65Z"/><path d="M248.9,152.72C133,133.14,23,212.61,3.1,330.22s58,228.82,173.82,248.4,225.93-59.88,245.8-177.49S364.78,172.31,248.9,152.72ZM320.65,437c-28,53.17-72.72,84.71-99.78,70.44s-26.25-68.95,1.8-122.13,72.73-84.72,99.78-70.44S348.71,383.81,320.65,437Z"/><path d="M51.4,702,99.67,755.9H64.42L29.1,715.56V755.9H1.24V648H29.1v44.68L63.51,648H96.42Z"/><path d="M292.36,755.9H254.47l-35.89-81v81H192V648h40.16l33.62,75.33V648h26.57Z"/><path d="M327.9,755.9H300.05V648H327.9Z"/><path d="M426.94,671.06H395V755.9H367.16V671.06H335.23V648h91.71Z"/><path d="M135,624.57l23,26.26a4.61,4.61,0,0,1-.25,6.33h0a4.59,4.59,0,0,1-5.06.93L120.3,644a4.61,4.61,0,0,1-1.82-7l9.34-12.17A4.63,4.63,0,0,1,135,624.57Z"/><path d="M142.42,659.13C115,654.5,89,673.3,84.27,701.12S98,755.25,125.39,759.89s53.45-14.17,58.15-42S169.84,663.76,142.42,659.13Zm17,67.25c-6.64,12.58-17.21,20-23.61,16.66s-6.21-16.31.43-28.89,17.2-20,23.6-16.66S166,713.8,159.4,726.38Z"/></g></g></svg>