<svg xmlns="http://www.w3.org/2000/svg" viewBox="0 0 173 582"><defs><style>.cls-1{fill:#e0dbc1;}.cls-2,.cls-9{fill:none;}.cls-3,.cls-5,.cls-6,.cls-7{isolation:isolate;}.cls-3,.cls-4{opacity:0.53;}.cls-3,.cls-5{font-size:34.12px;font-family:Helvetica;}.cls-6{font-size:34px;}.cls-6,.cls-7{fill:#020000;font-family:Boldfinger;}.cls-7{font-size:37.93px;}.cls-8{opacity:0.55;}.cls-9{stroke:#ff6700;stroke-miterlimit:10;stroke-width:4px;}</style></defs><g id="Layer_2" data-name="Layer 2"><g id="Layer_1-2" data-name="Layer 1"><rect class="cls-1" width="170" height="582"/><rect class="cls-2" x="20.5" y="19.5" width="26.1" height="26.1"/><text class="cls-3" transform="translate(20.49 44)">w</text><rect class="cls-2" x="59.6" y="19.5" width="26.1" height="26.1"/><text class="cls-3" transform="translate(59.63 44)">g</text><rect class="cls-2" x="98.8" y="19.5" width="26.1" height="26.1"/><text class="cls-3" transform="translate(98.77 44)">d</text><rect class="cls-2" x="136.9" y="19.5" width="26.1" height="26.1"/><text class="cls-3" transform="translate(136.91 44)">f</text><rect class="cls-2" x="20.5" y="57.6" width="26.1" height="26.1"/><text class="cls-3" transform="translate(20.49 82.13)">h</text><rect class="cls-2" x="59.6" y="57.6" width="26.1" height="26.1"/><text class="cls-3" transform="translate(59.63 82.13)">i</text><rect class="cls-2" x="98.8" y="57.6" width="26.1" height="26.1"/><text class="cls-3" transform="translate(98.77 82.13)">y</text><rect class="cls-2" x="136.9" y="57.6" width="26.1" height="26.1"/><text class="cls-3" transform="translate(136.91 82.13)">j</text><g class="cls-4"><rect class="cls-2" x="20.5" y="97.8" width="26.1" height="26.1"/><text class="cls-5" transform="translate(20.49 122.28)">c</text></g><rect class="cls-2" x="59.6" y="97.8" width="26.1" height="26.1"/><text class="cls-3" transform="translate(59.63 122.28)">u</text><rect class="cls-2" x="98.8" y="97.8" width="26.1" height="26.1"/><text class="cls-3" transform="translate(98.77 122.28)">n</text><rect class="cls-2" x="136.9" y="97.8" width="26.1" height="26.1"/><text class="cls-3" transform="translate(136.91 122.28)">o</text><rect class="cls-2" x="20.5" y="135.9" width="26.1" height="26.1"/><text class="cls-3" transform="translate(20.49 160.41)">o</text><rect class="cls-2" x="59.6" y="135.9" width="26.1" height="26.1"/><text class="cls-6" transform="translate(59.63 159.22)">g</text><rect class="cls-2" x="98.8" y="135.9" width="26.1" height="26.1"/><text class="cls-3" transform="translate(98.77 160.41)">n</text><rect class="cls-2" x="136.9" y="135.9" width="26.1" height="26.1"/><text class="cls-3" transform="translate(136.91 160.41)">e</text><rect class="cls-2" x="25.5" y="176.1" width="26.1" height="26.1"/><text class="cls-3" transform="translate(25.51 200.55)">f</text><rect class="cls-2" x="59.6" y="176.1" width="26.1" height="26.1"/><text class="cls-7" transform="translate(56.26 199.46) scale(0.93 1)">a</text><rect class="cls-2" x="98.8" y="176.1" width="26.1" height="26.1"/><text class="cls-6" transform="translate(98.77 199.36)">r</text><rect class="cls-2" x="136.9" y="176.1" width="26.1" height="26.1"/><text class="cls-6" transform="translate(136.91 199.36)">t</text><rect class="cls-2" x="23.5" y="214.2" width="26.1" height="26.1"/><text class="cls-3" transform="translate(23.5 238.69)">f</text><rect class="cls-2" x="59.6" y="214.2" width="26.1" height="26.1"/><text class="cls-6" transform="translate(59.63 237.5)">L</text><rect class="cls-2" x="98.8" y="214.2" width="26.1" height="26.1"/><text class="cls-3" transform="translate(98.77 238.69)">f</text><rect class="cls-2" x="136.9" y="214.2" width="26.1" height="26.1"/><text class="cls-3" transform="translate(136.91 238.69)">r</text><rect class="cls-2" x="20.5" y="254.3" width="26.1" height="26.1"/><text class="cls-3" transform="translate(20.49 278.83)">e</text><rect class="cls-2" x="59.6" y="254.3" width="26.1" height="26.1"/><text class="cls-6" transform="translate(59.63 277.64)">L</text><rect class="cls-2" x="98.8" y="254.3" width="26.1" height="26.1"/><text class="cls-3" transform="translate(98.77 278.83)">d</text><rect class="cls-2" x="136.9" y="254.3" width="26.1" height="26.1"/><text class="cls-3" transform="translate(136.91 278.83)">t</text><rect class="cls-2" x="20.5" y="292.5" width="26.1" height="26.1"/><text class="cls-3" transform="translate(20.49 316.97)">k</text><rect class="cls-2" x="59.6" y="292.5" width="26.1" height="26.1"/><text class="cls-6" transform="translate(59.63 315.78)">E</text><g class="cls-8"><rect class="cls-2" x="99.8" y="296" width="36.6" height="38"/><text class="cls-5" transform="translate(99.81 320.48)">b</text></g><rect class="cls-2" x="136.9" y="292.5" width="26.1" height="26.1"/><text class="cls-3" transform="translate(136.91 316.97)">o</text><rect class="cls-2" x="20.5" y="332.6" width="26.1" height="26.1"/><text class="cls-3" transform="translate(20.49 357.11)">n</text><rect class="cls-2" x="59.6" y="332.6" width="25.4" height="27.4"/><text class="cls-6" transform="translate(59.63 355.92)">R </text><g class="cls-8"><rect class="cls-2" x="97.2" y="334.6" width="38.2" height="35.6"/><text class="cls-5" transform="translate(97.2 359.12)">a</text></g><rect class="cls-2" x="136.9" y="332.6" width="26.1" height="26.1"/><text class="cls-3" transform="translate(136.91 357.11)">y</text><rect class="cls-2" x="20.5" y="370.7" width="26.1" height="26.1"/><text class="cls-3" transform="translate(20.49 395.25)">b</text><rect class="cls-2" x="59.6" y="370.7" width="26.1" height="26.1"/><text class="cls-6" transform="translate(59.63 394.06)">I</text><g class="cls-8"><rect class="cls-2" x="99.3" y="373.5" width="34.3" height="35.9"/><text class="cls-5" transform="translate(99.26 397.97)">k</text></g><rect class="cls-2" x="136.9" y="370.7" width="26.1" height="26.1"/><text class="cls-3" transform="translate(136.91 395.25)">x</text><rect class="cls-2" x="20.5" y="410.9" width="26.1" height="26.1"/><text class="cls-3" transform="translate(20.49 435.39)">b</text><rect class="cls-2" x="59.6" y="410.9" width="26.1" height="26.1"/><text class="cls-6" transform="translate(59.63 434.2)">E</text><g class="cls-8"><rect class="cls-2" x="99.3" y="412.6" width="33.3" height="33.9"/><text class="cls-5" transform="translate(99.26 437.11)">s</text></g><rect class="cls-2" x="136.9" y="410.9" width="26.1" height="26.1"/><text class="cls-3" transform="translate(136.91 435.39)">h</text><rect class="cls-2" x="20.5" y="449" width="26.1" height="26.1"/><text class="cls-3" transform="translate(20.49 473.53)">g</text><rect class="cls-2" x="59.6" y="449" width="26.1" height="26.1"/><text class="cls-6" transform="translate(59.63 472.33)">S</text><rect class="cls-2" x="98.8" y="449" width="26.1" height="26.1"/><text class="cls-3" transform="translate(98.77 473.53)">a</text><rect class="cls-2" x="136.9" y="449" width="26.1" height="26.1"/><text class="cls-3" transform="translate(136.91 473.53)">g</text><rect class="cls-2" x="20.5" y="489.2" width="26.1" height="26.1"/><text class="cls-3" transform="translate(20.49 513.67)">h</text><rect class="cls-2" x="59.6" y="489.2" width="26.1" height="26.1"/><text class="cls-3" transform="translate(59.63 513.67)">y</text><rect class="cls-2" x="98.8" y="489.2" width="26.1" height="26.1"/><text class="cls-3" transform="translate(98.77 513.67)">e</text><rect class="cls-2" x="136.9" y="489.2" width="26.1" height="26.1"/><text class="cls-3" transform="translate(136.91 513.67)">v</text><rect class="cls-2" x="20.5" y="527.3" width="26.1" height="26.1"/><text class="cls-3" transform="translate(20.49 551.8)">g</text><rect class="cls-2" x="59.6" y="527.3" width="26.1" height="26.1"/><text class="cls-3" transform="translate(59.63 551.8)">c</text><rect class="cls-2" x="98.8" y="527.3" width="26.1" height="26.1"/><text class="cls-3" transform="translate(98.77 551.8)">g</text><rect class="cls-2" x="136.9" y="527.3" width="36.1" height="26.1"/><text class="cls-3" transform="translate(136.91 551.8)">h</text><ellipse class="cls-9" cx="107.3" cy="185.8" rx="59.63" ry="21.28"/><ellipse class="cls-9" cx="69.45" cy="303.23" rx="27.75" ry="185.93"/></g></g></svg>