<svg xmlns="http://www.w3.org/2000/svg" viewBox="0 0 203.31 584.13"><defs><style>.cls-1{fill:#e0dbc1;}.cls-2,.cls-7{fill:none;}.cls-3,.cls-4,.cls-6{isolation:isolate;}.cls-3{font-size:34px;fill:#020000;font-family:Boldfinger;}.cls-4{opacity:0.53;}.cls-4,.cls-6{font-size:34.12px;font-family:Helvetica;}.cls-5{opacity:0.58;}.cls-7{stroke:#ff6700;stroke-miterlimit:10;stroke-width:4px;}</style></defs><g id="Layer_2" data-name="Layer 2"><g id="Layer_1-2" data-name="Layer 1"><rect class="cls-1" y="2.13" width="170" height="582"/><rect class="cls-2" x="20.5" y="26.63" width="26.1" height="26.1"/><text class="cls-3" transform="translate(20.49 49.94)">c</text><rect class="cls-2" x="59.6" y="21.63" width="26.1" height="26.1"/><text class="cls-4" transform="translate(59.63 46.13)">g</text><rect class="cls-2" x="98.8" y="21.63" width="26.1" height="26.1"/><text class="cls-4" transform="translate(98.77 46.13)">d</text><rect class="cls-2" x="136.9" y="21.63" width="26.1" height="26.1"/><text class="cls-4" transform="translate(136.91 46.13)">f</text><rect class="cls-2" x="20.5" y="64.73" width="26.1" height="26.1"/><text class="cls-3" transform="translate(20.49 88.08)">u</text><rect class="cls-2" x="59.6" y="59.73" width="26.1" height="26.1"/><text class="cls-4" transform="translate(59.63 84.27)">i</text><rect class="cls-2" x="98.8" y="59.73" width="26.1" height="26.1"/><text class="cls-4" transform="translate(98.77 84.27)">y</text><rect class="cls-2" x="136.9" y="59.73" width="26.1" height="26.1"/><text class="cls-4" transform="translate(136.91 84.27)">j</text><rect class="cls-2" x="25.5" y="104.93" width="26.1" height="26.1"/><text class="cls-3" transform="translate(25.49 128.22)">l</text><rect class="cls-2" x="59.6" y="99.93" width="26.1" height="26.1"/><text class="cls-4" transform="translate(59.63 124.41)">u</text><rect class="cls-2" x="98.8" y="99.93" width="26.1" height="26.1"/><text class="cls-4" transform="translate(98.77 124.41)">n</text><rect class="cls-2" x="136.9" y="99.93" width="26.1" height="26.1"/><text class="cls-4" transform="translate(136.91 124.41)">o</text><rect class="cls-2" x="23.5" y="146.03" width="26.1" height="26.1"/><text class="cls-3" transform="translate(23.49 169.36)">t</text><rect class="cls-2" x="59.6" y="138.03" width="26.1" height="26.1"/><text class="cls-4" transform="translate(59.63 162.55)">x</text><rect class="cls-2" x="98.8" y="138.03" width="26.1" height="26.1"/><text class="cls-4" transform="translate(98.77 162.55)">n</text><rect class="cls-2" x="136.9" y="138.03" width="26.1" height="26.1"/><text class="cls-4" transform="translate(136.91 162.55)">e</text><rect class="cls-2" x="20.5" y="183.23" width="26.1" height="26.1"/><text class="cls-3" transform="translate(20.51 206.5)">u</text><rect class="cls-2" x="59.6" y="178.23" width="26.1" height="26.1"/><text class="cls-4" transform="translate(59.63 202.69)">u</text><rect class="cls-2" x="98.8" y="178.23" width="26.1" height="26.1"/><text class="cls-4" transform="translate(98.77 202.69)">n</text><rect class="cls-2" x="136.9" y="178.23" width="26.1" height="26.1"/><text class="cls-4" transform="translate(136.91 202.69)">h</text><rect class="cls-2" x="22.5" y="222.33" width="26.1" height="26.1"/><text class="cls-3" transform="translate(22.5 245.63)">r</text><rect class="cls-2" x="59.6" y="216.33" width="26.1" height="26.1"/><text class="cls-4" transform="translate(59.63 240.82)">b</text><rect class="cls-2" x="98.8" y="216.33" width="26.1" height="26.1"/><text class="cls-4" transform="translate(98.77 240.82)">f</text><rect class="cls-2" x="136.9" y="216.33" width="26.1" height="26.1"/><text class="cls-4" transform="translate(136.91 240.82)">r</text><rect class="cls-2" x="20.5" y="256.43" width="26.1" height="26.1"/><text class="cls-3" transform="translate(20.49 279.78)">a</text><rect class="cls-2" x="59.6" y="256.43" width="26.1" height="26.1"/><text class="cls-4" transform="translate(59.63 280.97)">n</text><rect class="cls-2" x="98.8" y="256.43" width="26.1" height="26.1"/><text class="cls-4" transform="translate(98.77 280.97)">d</text><rect class="cls-2" x="136.9" y="256.43" width="26.1" height="26.1"/><text class="cls-4" transform="translate(136.91 280.97)">t</text><rect class="cls-2" x="26.5" y="300.63" width="26.1" height="26.1"/><text class="cls-3" transform="translate(26.49 323.91)">l</text><rect class="cls-2" x="59.6" y="300.63" width="26.1" height="26.1"/><text class="cls-3" transform="translate(59.63 323.91)">s</text><g class="cls-5"><rect class="cls-2" x="100.8" y="297.13" width="36.6" height="38"/><text class="cls-6" transform="translate(100.81 321.61)">t</text></g><rect class="cls-2" x="136.9" y="294.63" width="26.1" height="26.1"/><text class="cls-4" transform="translate(136.91 319.1)">o</text><rect class="cls-2" x="20.5" y="334.73" width="26.1" height="26.1"/><text class="cls-4" transform="translate(20.49 359.25)">n</text><rect class="cls-2" x="62" y="339.13" width="27" height="26.7"/><text class="cls-3" transform="translate(62 362.44)">p </text><g class="cls-5"><rect class="cls-2" x="98.2" y="335.73" width="38.2" height="35.6"/><text class="cls-6" transform="translate(98.2 360.26)">u</text></g><rect class="cls-2" x="136.9" y="334.73" width="26.1" height="26.1"/><text class="cls-4" transform="translate(136.91 359.25)">y</text><rect class="cls-2" x="20.5" y="372.83" width="26.1" height="26.1"/><text class="cls-4" transform="translate(20.49 397.38)">b</text><rect class="cls-2" x="60.6" y="378.83" width="26.1" height="26.1"/><text class="cls-3" transform="translate(60.63 402.19)">a</text><g class="cls-5"><rect class="cls-2" x="100.3" y="374.63" width="34.3" height="35.9"/><text class="cls-6" transform="translate(100.26 399.1)">k</text></g><rect class="cls-2" x="136.9" y="372.83" width="26.1" height="26.1"/><text class="cls-4" transform="translate(136.91 397.38)">x</text><rect class="cls-2" x="20.5" y="413.03" width="26.1" height="26.1"/><text class="cls-4" transform="translate(20.49 437.52)">b</text><rect class="cls-2" x="59.6" y="419.03" width="26.1" height="26.1"/><text class="cls-3" transform="translate(59.63 442.33)">c</text><g class="cls-5"><rect class="cls-2" x="100.3" y="414.73" width="33.3" height="33.9"/><text class="cls-6" transform="translate(100.26 439.25)">j</text></g><rect class="cls-2" x="136.9" y="413.03" width="26.1" height="26.1"/><text class="cls-4" transform="translate(136.91 437.52)">h</text><rect class="cls-2" x="20.5" y="451.13" width="26.1" height="26.1"/><text class="cls-4" transform="translate(20.49 475.66)">g</text><rect class="cls-2" x="63.6" y="459.13" width="26.1" height="26.1"/><text class="cls-3" transform="translate(63.63 482.47)">e</text><rect class="cls-2" x="98.8" y="451.13" width="26.1" height="26.1"/><text class="cls-4" transform="translate(98.77 475.66)">a</text><rect class="cls-2" x="136.9" y="451.13" width="26.1" height="26.1"/><text class="cls-4" transform="translate(136.91 475.66)">g</text><rect class="cls-2" x="20.5" y="491.33" width="26.1" height="26.1"/><text class="cls-4" transform="translate(20.49 515.8)">h</text><rect class="cls-2" x="59.6" y="491.33" width="26.1" height="26.1"/><text class="cls-4" transform="translate(59.63 515.8)">y</text><rect class="cls-2" x="98.8" y="491.33" width="26.1" height="26.1"/><text class="cls-4" transform="translate(98.77 515.8)">e</text><rect class="cls-2" x="136.9" y="491.33" width="26.1" height="26.1"/><text class="cls-4" transform="translate(136.91 515.8)">v</text><rect class="cls-2" x="20.5" y="529.43" width="26.1" height="26.1"/><text class="cls-4" transform="translate(20.49 553.94)">v</text><rect class="cls-2" x="59.6" y="529.43" width="26.1" height="26.1"/><text class="cls-4" transform="translate(59.63 553.94)">n</text><rect class="cls-2" x="98.8" y="529.43" width="26.1" height="26.1"/><text class="cls-4" transform="translate(98.77 553.94)">g</text><rect class="cls-2" x="136.9" y="529.43" width="26.1" height="26.1"/><text class="cls-4" transform="translate(136.91 553.94)"><tspan xml:space="preserve">a     </tspan></text><ellipse class="cls-7" cx="33.55" cy="171.87" rx="27.75" ry="169.87"/><ellipse class="cls-7" cx="71.65" cy="391.97" rx="22.13" ry="112.41"/></g></g></svg>