<svg xmlns="http://www.w3.org/2000/svg" viewBox="0 0 170 582"><defs><style>.cls-1{fill:#e0dbc1;}.cls-2{fill:none;}.cls-3,.cls-5,.cls-6{isolation:isolate;}.cls-3,.cls-4{opacity:0.53;}.cls-3,.cls-5{font-size:34.12px;font-family:Helvetica;}.cls-6{font-size:34px;fill:#020000;font-family:Boldfinger;}.cls-7{fill:#b22827;}</style></defs><g id="Layer_2" data-name="Layer 2"><g id="Layer_1-2" data-name="Layer 1"><rect class="cls-1" width="170" height="582"/><rect class="cls-2" x="20.5" y="19.5" width="26.1" height="26.1"/><text class="cls-3" transform="translate(20.49 44)">w</text><rect class="cls-2" x="59.6" y="19.5" width="26.1" height="26.1"/><text class="cls-3" transform="translate(59.63 44)">g</text><rect class="cls-2" x="98.8" y="19.5" width="26.1" height="26.1"/><text class="cls-3" transform="translate(98.77 44)">d</text><rect class="cls-2" x="136.9" y="19.5" width="26.1" height="26.1"/><text class="cls-3" transform="translate(136.91 44)">f</text><rect class="cls-2" x="20.5" y="57.6" width="26.1" height="26.1"/><text class="cls-3" transform="translate(20.49 82.13)">h</text><rect class="cls-2" x="59.6" y="57.6" width="26.1" height="26.1"/><text class="cls-3" transform="translate(59.63 82.13)">i</text><rect class="cls-2" x="98.8" y="57.6" width="26.1" height="26.1"/><text class="cls-3" transform="translate(98.77 82.13)">y</text><rect class="cls-2" x="141.9" y="57.6" width="26.1" height="26.1"/><text class="cls-3" transform="translate(141.91 82.13)">j</text><g class="cls-4"><rect class="cls-2" x="20.5" y="97.8" width="26.1" height="26.1"/><text class="cls-5" transform="translate(20.49 122.28)">c</text></g><rect class="cls-2" x="59.6" y="97.8" width="26.1" height="26.1"/><text class="cls-3" transform="translate(59.63 122.28)">u</text><rect class="cls-2" x="98.8" y="97.8" width="26.1" height="26.1"/><text class="cls-3" transform="translate(98.77 122.28)">n</text><rect class="cls-2" x="136.9" y="97.8" width="26.1" height="26.1"/><text class="cls-3" transform="translate(136.91 122.28)">o</text><rect class="cls-2" x="20.5" y="135.9" width="26.1" height="26.1"/><text class="cls-3" transform="translate(20.49 160.41)">o</text><rect class="cls-2" x="59.6" y="135.9" width="26.1" height="26.1"/><text class="cls-3" transform="translate(59.63 160.41)">x</text><rect class="cls-2" x="98.8" y="135.9" width="26.1" height="26.1"/><text class="cls-3" transform="translate(98.77 160.41)">n</text><rect class="cls-2" x="136.9" y="135.9" width="26.1" height="26.1"/><text class="cls-3" transform="translate(136.91 160.41)">e</text><rect class="cls-2" x="25.5" y="176.1" width="26.1" height="26.1"/><text class="cls-3" transform="translate(25.51 200.55)">f</text><rect class="cls-2" x="59.6" y="176.1" width="26.1" height="26.1"/><text class="cls-3" transform="translate(59.63 200.55)">u</text><rect class="cls-2" x="98.8" y="176.1" width="26.1" height="26.1"/><text class="cls-3" transform="translate(98.77 200.55)">n</text><rect class="cls-2" x="136.9" y="176.1" width="26.1" height="26.1"/><text class="cls-3" transform="translate(136.91 200.55)">h</text><rect class="cls-2" x="23.5" y="214.2" width="26.1" height="26.1"/><text class="cls-3" transform="translate(23.5 238.69)">f</text><rect class="cls-2" x="59.6" y="214.2" width="26.1" height="26.1"/><text class="cls-3" transform="translate(59.63 238.69)">b</text><rect class="cls-2" x="98.8" y="214.2" width="26.1" height="26.1"/><text class="cls-3" transform="translate(98.77 238.69)">f</text><rect class="cls-2" x="136.9" y="214.2" width="26.1" height="26.1"/><text class="cls-3" transform="translate(136.91 238.69)">r</text><rect class="cls-2" x="20.5" y="254.3" width="26.1" height="26.1"/><text class="cls-3" transform="translate(20.49 278.83)">e</text><rect class="cls-2" x="59.6" y="254.3" width="26.1" height="26.1"/><text class="cls-3" transform="translate(59.63 278.83)">n</text><rect class="cls-2" x="98.8" y="254.3" width="26.1" height="26.1"/><text class="cls-3" transform="translate(98.77 278.83)">d</text><rect class="cls-2" x="136.9" y="254.3" width="26.1" height="26.1"/><text class="cls-3" transform="translate(136.91 278.83)">t</text><rect class="cls-2" x="20.5" y="292.5" width="26.1" height="26.1"/><text class="cls-3" transform="translate(20.49 316.97)">k</text><rect class="cls-2" x="59.6" y="292.5" width="26.1" height="26.1"/><text class="cls-3" transform="translate(59.63 316.97)">q</text><rect class="cls-2" x="99.8" y="301" width="36.6" height="38"/><text class="cls-6" transform="translate(99.81 324.29)">B</text><rect class="cls-2" x="136.9" y="292.5" width="26.1" height="26.1"/><text class="cls-3" transform="translate(136.91 316.97)">o</text><rect class="cls-2" x="20.5" y="332.6" width="26.1" height="26.1"/><text class="cls-3" transform="translate(20.49 357.11)">n</text><rect class="cls-2" x="59.6" y="332.6" width="21.4" height="26.1"/><text class="cls-3" transform="translate(59.63 357.11)">p </text><rect class="cls-2" x="97.2" y="339.6" width="38.2" height="35.6"/><text class="cls-6" transform="translate(97.2 362.93)">A</text><rect class="cls-2" x="136.9" y="332.6" width="26.1" height="26.1"/><text class="cls-3" transform="translate(136.91 357.11)">y</text><rect class="cls-2" x="20.5" y="370.7" width="26.1" height="26.1"/><text class="cls-3" transform="translate(20.49 395.25)">b</text><rect class="cls-2" x="59.6" y="370.7" width="26.1" height="26.1"/><text class="cls-3" transform="translate(59.63 395.25)">v</text><rect class="cls-2" x="99.3" y="378.5" width="34.3" height="35.9"/><text class="cls-6" transform="translate(99.26 401.78)">R</text><rect class="cls-2" x="136.9" y="370.7" width="26.1" height="26.1"/><text class="cls-3" transform="translate(136.91 395.25)">x</text><rect class="cls-2" x="20.5" y="410.9" width="26.1" height="26.1"/><text class="cls-3" transform="translate(20.49 435.39)">b</text><rect class="cls-2" x="59.6" y="410.9" width="26.1" height="26.1"/><text class="cls-3" transform="translate(59.63 435.39)">r</text><rect class="cls-2" x="99.3" y="418.6" width="33.3" height="33.9"/><text class="cls-6" transform="translate(99.26 441.92)">S</text><rect class="cls-2" x="136.9" y="410.9" width="26.1" height="26.1"/><text class="cls-3" transform="translate(136.91 435.39)">h</text><rect class="cls-2" x="20.5" y="449" width="26.1" height="26.1"/><text class="cls-3" transform="translate(20.49 473.53)">g</text><rect class="cls-2" x="59.6" y="449" width="26.1" height="26.1"/><text class="cls-3" transform="translate(59.63 473.53)">e</text><rect class="cls-2" x="98.8" y="449" width="26.1" height="26.1"/><text class="cls-3" transform="translate(98.77 473.53)">a</text><rect class="cls-2" x="136.9" y="449" width="26.1" height="26.1"/><text class="cls-3" transform="translate(136.91 473.53)">g</text><rect class="cls-2" x="20.5" y="489.2" width="26.1" height="26.1"/><text class="cls-3" transform="translate(20.49 513.67)">h</text><rect class="cls-2" x="59.6" y="489.2" width="26.1" height="26.1"/><text class="cls-3" transform="translate(59.63 513.67)">y</text><rect class="cls-2" x="98.8" y="489.2" width="26.1" height="26.1"/><text class="cls-3" transform="translate(98.77 513.67)">e</text><rect class="cls-2" x="136.9" y="489.2" width="26.1" height="26.1"/><text class="cls-3" transform="translate(136.91 513.67)">v</text><rect class="cls-2" x="20.5" y="527.3" width="26.1" height="26.1"/><text class="cls-3" transform="translate(20.49 551.8)">j</text><rect class="cls-2" x="59.6" y="527.3" width="26.1" height="26.1"/><text class="cls-3" transform="translate(59.63 551.8)">n</text><rect class="cls-2" x="98.8" y="527.3" width="26.1" height="26.1"/><text class="cls-3" transform="translate(98.77 551.8)">g</text><rect class="cls-2" x="136.9" y="527.3" width="26.1" height="26.1"/><text class="cls-3" transform="translate(136.91 551.8)">r</text><path class="cls-7" d="M107.4,279.6c.1.3.4.3.7-.2l-.4-.7Z"/><path class="cls-7" d="M110.7,277.4a8.65,8.65,0,0,1,.7-1c.2-.3.3-.6,0-.9l-.8.8a1.87,1.87,0,0,0-.5,1.1c-.4.5-.9.6-1,.3,0,.3-.8.7-.6,1.2a4.79,4.79,0,0,0,2-2C110.9,276.9,110.7,277.2,110.7,277.4Z"/><path class="cls-7" d="M125.2,324.5v0Z"/><path class="cls-7" d="M125.5,356.4c0-.2-.1-.3-.1-.4C125.4,356.3,125.4,356.5,125.5,356.4Z"/><path class="cls-7" d="M124.5,361.9a.37.37,0,0,1,.1-.3A.37.37,0,0,0,124.5,361.9Z"/><path class="cls-7" d="M125.2,324.5l-.1.9C125.3,325.4,125.2,324.9,125.2,324.5Z"/><path class="cls-7" d="M117.3,280.4a.78.78,0,0,0-.4-.4c.1.1.2.3.4.4Z"/><path class="cls-7" d="M122.3,310.8l-.1-.3a.37.37,0,0,0-.3-.1Z"/><path class="cls-7" d="M119.4,300.5c0,.2.6.2.9.2a.7.7,0,0,1-.5-.4C119.6,300.3,119.5,300.3,119.4,300.5Z"/><path class="cls-7" d="M116.1,283.5l-.2-.3C116,283.3,116,283.5,116.1,283.5Z"/><path class="cls-7" d="M123.7,318.4c-.1,0-.1.1-.2.1C123.6,318.5,123.6,318.4,123.7,318.4Z"/><path class="cls-7" d="M94.5,291.3Z"/><path class="cls-7" d="M106.3,286h-.2a.37.37,0,0,0-.1.3Z"/><path class="cls-7" d="M123.3,371.8Z"/><path class="cls-7" d="M103.8,445.9c.1.5-.3.3-.6.2s-.6-.3-.4.5C102.9,446.3,104.2,447,103.8,445.9Z"/><path class="cls-7" d="M117.4,280.7c.1.1.1.3.2.4C117.5,280.9,117.4,280.8,117.4,280.7Z"/><path class="cls-7" d="M102.8,446.5h0v0Z"/><path class="cls-7" d="M122.8,395c.1,0,.2-.1.3-.2C123,394.8,122.9,394.8,122.8,395Z"/><path class="cls-7" d="M124.2,377.8l-.1.4A.76.76,0,0,0,124.2,377.8Z"/><path class="cls-7" d="M123.2,403.9a1.08,1.08,0,0,0-.1.6l.1-.1A.78.78,0,0,1,123.2,403.9Z"/><path class="cls-7" d="M122.6,413.1a.35.35,0,0,0,.1-.2v-.3Z"/><path class="cls-7" d="M91.2,320.2c.2-.2.4-.3.5-.4C91.3,319.9,91.3,318.5,91.2,320.2Z"/><path class="cls-7" d="M117,280.5c.2,0,.3,0,.3.2-.1-.1-.1-.2-.2-.3A.1.1,0,0,0,117,280.5Z"/><path class="cls-7" d="M127.6,404.5l-.2,1.5A3.42,3.42,0,0,0,127.6,404.5Z"/><path class="cls-7" d="M86.8,386.9l-.1-.3A.37.37,0,0,0,86.8,386.9Z"/><path class="cls-7" d="M127.3,410.4c-.2.3-.4.5-.4.8,0,.1.1.1.1.2Z"/><path class="cls-7" d="M91.1,309.9c-.1,1.4.7.7,1.1,1.1.1,1.7-.6.7-1,1.3.1,1.1.7,1.9.6,2.7-.1,0-.2.2-.3,0,.5,1.2-.2,3.3.4,4.6l-.2.2a1.23,1.23,0,0,1,1-.1c0,.6.4,1.2-.1,1.4,0-.4-.2-.4-.3-.6l.2.7c-.7.6-.2-.9-.7-1,.1,1.3.6,2.8.4,3.8-.7.2-.1-2.3-.8-1l.4-1.5c-1.1,1.1.1-.9-1.1.1-.3,2,.2,2.3-.1,4.3.3.5.6-.1.9.4.5,2.9-1.8,2.1-1.1,4.3.4.6,1.3.8.7,2.3l-.7-.6c-.2,1.9,1,1.2.4,3.2-.3-.4-.2-1.5-.3-1.3-.7,1.3.4,1,.3,2l-.7.2c0,2.1.3,4.4.3,6.7-.2-.1-.4-.5-.6,0a33.5,33.5,0,0,1-1.2,8.9l.5,1.1c0,.2-.3.4-.4.2-.3,1.1.4.1.6.6,0,.6-.4.8-.5.4.3,2,.6,5.5-.2,7.5l-.1-.4c-.4,1.6,1,1.9.4,3.3l-.1-.3c-.5,3.4-.3,7.2-1.3,9.8.8.6-.6,3.4.6,3.7-.7,1.9-.9,1.4-1.4,4.1-.1.7.7,1.1.8,2.1h-.6l.6,1.3-.8.6.1.9c0-.3.3-.7.5-.7.2,1.3-.5,3.3-.8,3.3.2,1.1.3,2.1.5,3.2-.2-.1-.3-.6-.5-1,.6,1.7-.6.3-.1,1.9.1-.2.4.1.5.1a8.19,8.19,0,0,0-.2,3.9l-.4-.2c0,2.4.4,5,.6,7.7.1-1,.9-.8,1,0l-.6.4c.4.5.2-.8.8.2,0,1-.7.7-.9.2l.3,1.2c-.2.1-.3-.2-.6-.2.4.5-.5,2.2.3,2.8l-.2.1a21.64,21.64,0,0,0,.5,3.2c.2.9.4,1.7.6,2.8.6,0,.6.8,1.1,1.4a20.16,20.16,0,0,0,.5,5.3c.6,1.3.5.3,1,.8-.5.2.1,2.1-.6,1.2.3,1.1.5,1.8.8,2.6a20.56,20.56,0,0,0,1.3,2.9c.1-.4.1-.7.3-.6.2.5.2,1.2-.1,1.2l-.1-.1c.9,1.4,1.1,3.4,1.4,5.2s.6,3.5,1.6,4.6l-.1-.1a18.82,18.82,0,0,0,1.6,2.3c.4,1.2-.7-.5-.6.5a15.28,15.28,0,0,1,2,3.3,8.9,8.9,0,0,0,2,2.9c0,1.3,1.3,2.8,3.3,4a8,8,0,0,0,3.4,1.1,18.88,18.88,0,0,0,3.2.2l-.3-.3c.8-.6,1.2-.1,1.9-.3-.2-.2-1.1.1-.6-.3a13.4,13.4,0,0,0,4.1-3.1,45.75,45.75,0,0,0,2.9-3.6,46.73,46.73,0,0,0,4.5-7.7c.8-2-1.3-1.7.3-4l.4.9c.3-2.2.8-4.3,1.3-6.4.2-1,.4-2.1.6-3.1s.2-2.1.2-3.1c.1.3.3.3.2.7.6-.8.5-3.2.1-3.2.1-.6.4-.1.6-.5.4-.8-.3-2.2.2-2.6.1-.1.1.3.1.4-.2-.6.3-2.6-.3-2.1.4-1.5,0-2.9.4-4.1-.6-.8.5-2.6-.4-2.9.9.2.9-2.6.5-3.6.3.3.3-.8.7-.4,0-1.1-.1-2.1-.6-1.9,1.2-2-.7-4.1.7-5.1-.4-3.2-.6-6.2-.7-9.1.9.1,0,3.2.9,3.1-.3-2.8-1-4.4-.7-7.1.2-.7.4.4.5.7-.3-2.7.3-5.3-.1-7.7.1,0,.2.3.2.5,0-.5.2-1.1-.2-1.1l.1.5c-.6.7-1.2-2-1.5-2.1,1.1.9.4-2.4,1.8-1-.1-.3-.2-.7-.5-.7.1-.5.3-.6.6-.1-.1-1.7-.6-1.1-.5-2.7.2,0,.3.3.5.5a5.05,5.05,0,0,1-.5-2.9c.1.1.3-.1.3.3,0-2.3-.8-3.9-.4-6.4.8.8.3-.8,1.1-.9l-.2-1.3-.4.5c.1-1.2-.4-2.2-.2-3.2l.3.9-.1-2.2-.3,1.2c-.3-1.2-.9.1-.7-1.5.1.3,0-1.2.5-1.8h0a3.48,3.48,0,0,1-.3-2.1c.2-.2.8.2,1,.1-.6-.6-.1-2.8-.8-3.5.2.2.5.3.6.2l-.5-.5c.2-.5.2-.6.6-.5.1-1.6-1,.5-.5-1.4,0,.2.1.1.2.4.2-2-.3-3.8-.1-5.6.7-.5.2,1.6.8,1-.2-2.6-1-5.4-.9-7.9l-.1.5c-1.1-.3.5-1.9-.1-3.1.1.3.6.4.5.3.1-1.7-.5-3.5-1.1-6.1l.3.3a24.84,24.84,0,0,0-.2-3.8c-.3-.3-.3-.9-.7-.5,1.1-3.6-1.8-6.2-1.2-9.4.1.4.4.8.4.5-.3-.8-.5-1.6-.8-2.4-.4.3-.2.4-.4,1a4.26,4.26,0,0,1-.9-1.5c.6,1,.7-.2.8-.7-.1.1-.3,0-.4.1.5-1.5-.9,0-.9-1.9h.3a5.57,5.57,0,0,1-.9-1.9c.4-.4.4.6.9.6-.3-1-1.5-1.7-1.3-2.7.3.4.4,1,.7,1.4a3.37,3.37,0,0,0,0-2v.1l-.2-1.8v.5a2.44,2.44,0,0,1-1.3-1.7,5.7,5.7,0,0,0-.9-2.2c1.2,1.4.5.2,1.2.1.1-.5.1-1.2.3-1-.7-.7.1-1.4-.9-2.4.2-.1-.2-.9.3-.8-.4-1-.3.3-.5.3-1-1.4-.1-4-1.6-6.1-.9-1.9-1.6-2.1-2.5-3.8.1-.7.8.3.8.3a4.61,4.61,0,0,0-1-2.6c.2.1.3-.1.4-.5-.4-.7-.8-.2-1.1-1.3a3,3,0,0,1,1.1.4,12.47,12.47,0,0,0-2.3-2.3c0-.3.2-.2.5-.1a5.58,5.58,0,0,1,.8.5c-.2-.3-.6-.6-.8-.9a3,3,0,0,0-1-.7,1.69,1.69,0,0,0-.5-.2.9.9,0,0,0-.5-.1c-.3,0-.5,0-.6.2a4.35,4.35,0,0,1,.7.4c-.4-.1-.1-.5.3-.5a4.88,4.88,0,0,1,.7.3,1,1,0,0,1,.4.5,2.25,2.25,0,0,1,.1.7l-.6-.5c0,.8.4,1.2,1,1.8a6.62,6.62,0,0,1,1.5,1.9l-1-.2c.4.3.8.7,1.2,1-.1.4-.4.7-.8.1,0,1,.6.7.4,1.6,0,.1-.1.1-.1,0l.5.8c-.2-.1-.5.3-.6-.3.1,1.7,1.4,2.4,1,3.2l-.1-.1c.9,2.2.7.1,1.8,1.6l-1.2,1.5.6.1c0,.2.1.7-.2.7.6.8.2-.2.7.2-.3,1.3,1,3.1.1,3.6.5.3.1-1.2.7,0-.9.6.5,1.4.3,2.5-.6-.2-.5-1.3-.8-.1,1,.4.3,2.1.7,3,.7-.2.8,1.8,1.5,3.2-.3,0,.4,2.9.5,4.3h-.1c.8.1,1,1.5,1.4,2.5-.4.1-.6-.1-1-.6l.2,1a1.61,1.61,0,0,1,.7,1.1l-.6-.1c.3,1.3,1.2,2.4,1.2,4.2.5,0,1.1-1.6,1.8.1-.3.1-.7.3-.9-.2a1.49,1.49,0,0,1,.3.8l-.6-.6c-.1.8.5.3.5.9-.4.1-.2.5-.5.5-.1-.1.1-.6-.1-.8a2.74,2.74,0,0,1-.3,1.9c.2-.1.5-.1.7.4.2,1.3-.4.5-.5,1.3.3.3.2,1.1.7,1.1.1.4-.2.5-.4.7.4.6.5,3.1,1,2.3v-.1h0c.8,2.2.1,4.7.5,6.9h-.2a34.49,34.49,0,0,0,.7,3.9c0,.4-.3.9-.6.8a4.37,4.37,0,0,1,.1,2.6c-.4-1-.3.4-.3-1-.1,1.3-.4,1.6.1,3-.5-.5-.6,1-.5,1.6l.4-.9a12,12,0,0,1,0,1.9l-.7-.3c-.8,2.7,1.4,4.9,0,6.9.5.7.3-1.5.9-.8-.1,1.2-1.1,2.5-1.1,2.9-.4,1.7.9,1.6.6,3.4.2-.2.9-.4,1.1.9-.1,1.2-1,1.5-1.2.7a.58.58,0,0,1,.1-.4c-.1-.4-.2-.9-.4-.5l.2.2c-.3.6-.3,2.3-.7,1.9.2.9.4.4.5-.3-.4,1.6-.1,2.5-.4,4.1.1-.3.4-.5.4-.2-.4,2.4.4,1.1.4,2.7-.4.9-.8-.4-.6,1.3-.3,1-.6.2-.8-.2.4,1.5-.4,2.8-.6,3.6l-.2-.8a2.85,2.85,0,0,1,0,1.3l.5-.4c-.1.5-.1.9-.3.8.3.5.8-.3,1.2.6-.3.6.2,1.9-.5,2.1.3-1.9-.6.2-.7-1.5a2.63,2.63,0,0,1-.1,1.2c-.1.1-.1-.1-.2-.2-.7,1.8.7.9.6,2.8-.3-.3-.7.4-.6.7,0-.8.6-.3.8.4-.3,1.2.1,1.4.1,2l.2-.7c.3.3.3.9.3,1.8-.3.1-.2-.8-.3-.5.6,1-.7,2.1-.4,3.5-.3.6-.7,0-.9.6.4,1.5-.6,1.6-.2,3.2.5-.4.4-.5.8.6l-.2-2.6.6,1.7a17.86,17.86,0,0,1-.1-2.1c.4.8.2.7.7.4-.8,1,.3,2.1-.2,3.4l-1.2-.1c-.6,1.9.5,3.3.1,5.7l.2-.8c.5.3,0,1.5.2,2.3-.4-.1-.6.4-.8.7.3,0-.1,1.8.7,2l-.6,1.1c-.3,1.9,1,2.3.8,4.1-.4-.6-.7.3-1-1,0,.6-.1,1.2.1,1.2-.3.4.4,1.8,0,2.3.2.3.6.4.5,1.1a.14.14,0,0,1-.2,0c.2,0,.2,1.1.7.5-1.3,1.8-.3,5.4-1.5,6.9,0,1.4,0,3-.1,4.2-.1-.1-.2,0-.1-.3-.6,1.6,1,1.2.4,3-.8.9-.2-1.1-.5-.5-1.3.1-.1,2.3-1.1,3.5v-.3c-.6.9.1,2.5-.3,4a.14.14,0,0,0-.2,0c.5,1.2.2,3.3,0,4.9-.4-.6-.1-.7-.7-.6-.1.7.9,0,.6,1.4-.4.4-.9,1.3-1.5,1.2l.3-1.2c-.9.5-.4,1.6-.8,2.2l-.3-.2c-.5,1.9.2,2.2-.7,4.2l.3-.1c.3,1.4-.8.7-.7,2h-.9a20.41,20.41,0,0,1-1.1,4,21.08,21.08,0,0,1,.5-3.5,9.52,9.52,0,0,0-1,2.8c.1-.3.1-.7.4-.9a5.54,5.54,0,0,1-1.2,3.6c-.5-.6-1.2.2-1.9.9s-1.7,1.5-2.3,1.1c-.2.2-.4.4-.5.4a1.42,1.42,0,0,1-.6.2,3.33,3.33,0,0,1-1.4-.1,8.12,8.12,0,0,1-2.6-1.9c-.2,1.5-.6-.5-1.4.4-.5-.5-.7-.7-.6-.8-.2-.7-.4-1.4-.6-2.2,0-.6.6.4.8.2-.7-1.3.1-.8-.1-1.8-.3.4-.8-.1-1-1a5.28,5.28,0,0,0,.1,1.3c-1.6-1.6.1-2.1-1.4-3.8l.6.5c-.7-.9-1.6-3.9-2.9-4.6.1-.2.3-.6.5-.2-.4-1.3-1.2-2.7-1.8-4.1a12.66,12.66,0,0,1-1.3-3.7l.4.1c-.2-.5-.8-.7-.7-1.4.1,0,.3.1.3-.1a3.74,3.74,0,0,1-.9-1.9l.5.5c-.3-2.7-1.8-3.8-2.4-6,.4-.1.6-.7.7-1.3a14.8,14.8,0,0,0,.1-2h.1c-.4-3.1-1.5-5.2-2.2-8.1a10.73,10.73,0,0,0,.3-4.2,27.46,27.46,0,0,1,.1-5c-.1.5-.7,0-.8-.6.1-.7-.6-1.9.2-1.8v.2c.8-.5.6-1.9.6-3l-1.1-.2c1.5-2.9-.5-7.6,1-9.2-.2-.7-.2-1.6-.4-2.3l.6.1a27.9,27.9,0,0,0,.4-5.3l.4.5c.1-1.3-1.5-1.8-1.5-3.1l.9-.3c.1-2.4,1.1-4.7.5-7.1a.45.45,0,0,1,.4.5c.1-1.1.9-4.3-.3-3.9.8,0,.3-2.4.1-3.7l.5.2a4.59,4.59,0,0,1-.9-2.7c.1-.4.5-.3.3.2.4-1.2-.4-1,0-2.4l.3.6c.1-1.2-.1-1.1-.4-1.9s.3-2.3.9-2.5a1.57,1.57,0,0,1-.4-1.6c.2-.1.3.2.3.3.5-2-.4-3.1.2-4.5.2,0,.3-.1.3-.2a25.74,25.74,0,0,1-.3,2.8c.5,0,.7-1.3,1.3-.2-.3-1.1-1-3-.7-4.2l.2-.2v.1a2.13,2.13,0,0,0,0-.8,4.25,4.25,0,0,0,.2-1.1c.4-.1.3-1.5.4-2.2-.6,0-.4-.8-.9-.1,0-.1.1.1.1.6v.3h0a9.74,9.74,0,0,1-.1,1.6,1.65,1.65,0,0,1-.1-1.8c-.3-.4-.7-.8-.8-1,.8-.9,1.4-2.6,1.9-2.8-.2-2,.1-4.7-.9-6.1-.1-.6.3-.6.5-.8.1.3,0,.7.2.9-.2-1.2.1-3.4-.6-3.7.4-1.4.6.8.6-1.1l.2.3c1.4-3.8-1.5-6.4.3-10.6a1.07,1.07,0,0,1-.3.5c1-4.8.2-10.1,1.9-14.8.4-1.3-.1-1.5-.3-2.4l.6-.2c-.2-.5-.3-1-.5-1.5a3.41,3.41,0,0,1,1.1-2.5,5,5,0,0,0,1.4-2.7l-.5.1c.5-.7,1.4-2.4,1.7-2,0-.1-.1-.5.3-.6l.2.2.6-.9a5,5,0,0,1,.7-.8c.8-.2.8.1.9.3s.1.3.3.3.4,0,.8,0c.1,0,.1-.1.2-.1s.2-.1.3-.1a1.42,1.42,0,0,1,.6-.2c.4-.1.8-.3.7-.4-.3-.1-.8-.4-.7-.7l.8.1a7.46,7.46,0,0,0,.7-1.2.74.74,0,0,0-.3-.7,3,3,0,0,0-1.4-.8,8.64,8.64,0,0,0-2.1.7,6.89,6.89,0,0,0-.8-.3,2.92,2.92,0,0,1,.9-.2l.9-.1c-1.1-.4-1.7.2-2.3.7a1.1,1.1,0,0,0-1-.1,4.7,4.7,0,0,0-.6.9,4.05,4.05,0,0,0-.5.9c-.4-.1.2-1.1-.9-.4-.4.9,1.1.1.3,1.2-.9.3-1-.1-1.3.9-.3,0-.3-.3-.1-.7-.2.4-.5.9-.8,1.4s-.4.9-.3,1.2c-.9.5-1.1,2.6-1.9,2.2a9.4,9.4,0,0,1,0,2.4c-.3-.8-.6-.1-.8.7s-.4,1.8-.9,1.5c.8,1.1-.1,3.5.3,5.2-.1-.1-.2-.3-.1-.4a4.49,4.49,0,0,1-.8,1.7c.8.2.8,1.7,1.2,2.5-.9,1.1-.8-.8-1.6-.5.6,0,.4,2,1,1.7-.5.8-.3.7-1,1.1,1,.2.1.8.6,1.6-.6,1.2-.9.2-.8,1.7C91.4,311.2,91.1,309.9,91.1,309.9Zm-.4,33h0v0Zm-.2,2.8c0-.3.1-.7.1-1.2.2-.1.4,0,.4.3C90.8,344.6,90.7,345.3,90.5,345.7Zm4.3-5.6c.1.4-.1.6-.2.6v-.8l-.1-.1C94.6,340,94.7,340,94.8,340.1Z"/><path class="cls-7" d="M94.1,339.3v-.2c-.1.1-.1.2,0,.2,0,.2,0,.2.1.3A.77.77,0,0,1,94.1,339.3Z"/><polygon class="cls-7" points="86.6 383.7 86.8 383.7 86.6 383.5 86.6 383.7"/><path class="cls-7" d="M124.4,308.8a.35.35,0,0,0,.1-.2A.31.31,0,0,1,124.4,308.8Z"/><path class="cls-7" d="M122.8,302.4l-.1-1A3.75,3.75,0,0,1,122.8,302.4Z"/><path class="cls-7" d="M121.8,297.5h0Z"/><path class="cls-7" d="M128,377.6v.2C128.1,378.3,128.1,378,128,377.6Z"/><path class="cls-7" d="M127.7,353.6a2.35,2.35,0,0,1,.2.8C128,354,128,353.7,127.7,353.6Z"/><path class="cls-7" d="M127.7,404.4h0v0Z"/><path class="cls-7" d="M127.9,355.5a2,2,0,0,0,0-1.1A4,4,0,0,0,127.9,355.5Z"/><path class="cls-7" d="M113.8,275.7c-.1-.1-.2-.1-.3-.2a.1.1,0,0,1-.1.1A.76.76,0,0,0,113.8,275.7Z"/><path class="cls-7" d="M113.4,275.6l-.4-.1C113.2,275.6,113.4,275.7,113.4,275.6Z"/><path class="cls-7" d="M112.3,275.5a2.15,2.15,0,0,1,.8,0A1.07,1.07,0,0,0,112.3,275.5Z"/><path class="cls-7" d="M118,282.6h0Z"/><path class="cls-7" d="M118.7,284.6a8.08,8.08,0,0,0-.3-2h-.2C118.6,282.8,118.2,284.2,118.7,284.6Z"/><path class="cls-7" d="M118.4,293.5l-.2-1.7c-.1.3-.3.8-.6,0C117.4,294,117.9,291.3,118.4,293.5Z"/><path class="cls-7" d="M119.2,298.7c-.3-.9-.3.1-.4.1C119.1,299.3,119.2,299.4,119.2,298.7Z"/><path class="cls-7" d="M125.6,336l-.5-.1C125.2,336.6,125.3,335.9,125.6,336Z"/><polygon class="cls-7" points="128.4 343.2 128.7 342.5 128.2 342.2 128.4 343.2"/><polygon class="cls-7" points="124.7 347.5 124.6 347.2 124.8 348.4 124.7 347.5"/><path class="cls-7" d="M122.3,411.5l.6-.2C122.8,410.8,122.1,410.7,122.3,411.5Z"/><path class="cls-7" d="M117.6,438.1a1.34,1.34,0,0,0-.8,1.3A11.65,11.65,0,0,0,117.6,438.1Z"/><path class="cls-7" d="M91.5,391.2l.2.6c-.1-.3-.1-.7-.2-1Z"/></g></g></svg>