<svg xmlns="http://www.w3.org/2000/svg" viewBox="0 0 203.31 584.13"><defs><style>.cls-1{fill:#e0dbc1;}.cls-2,.cls-8{fill:none;}.cls-3,.cls-4,.cls-7{isolation:isolate;}.cls-3,.cls-5{font-size:34px;fill:#020000;font-family:Boldfinger;}.cls-4{opacity:0.53;}.cls-4,.cls-7{font-size:34.12px;font-family:Helvetica;}.cls-6{opacity:0.58;}.cls-8{stroke:#ff6700;stroke-miterlimit:10;stroke-width:4px;}</style></defs><g id="Layer_2" data-name="Layer 2"><g id="Layer_1-2" data-name="Layer 1"><rect class="cls-1" y="2.13" width="170" height="582"/><rect class="cls-2" x="20.5" y="26.63" width="26.1" height="26.1"/><text class="cls-3" transform="translate(20.49 49.94)">h</text><rect class="cls-2" x="59.6" y="21.63" width="26.1" height="26.1"/><text class="cls-4" transform="translate(59.63 46.13)">g</text><rect class="cls-2" x="98.8" y="21.63" width="26.1" height="26.1"/><text class="cls-4" transform="translate(98.77 46.13)">d</text><rect class="cls-2" x="136.9" y="21.63" width="26.1" height="26.1"/><text class="cls-4" transform="translate(136.91 46.13)">f</text><rect class="cls-2" x="26.59" y="64.77" width="26.1" height="26.1"/><text class="cls-3" transform="translate(26.58 88.11)">i</text><rect class="cls-2" x="59.6" y="59.73" width="26.1" height="26.1"/><text class="cls-4" transform="translate(59.63 84.27)">i</text><rect class="cls-2" x="98.8" y="59.73" width="26.1" height="26.1"/><text class="cls-4" transform="translate(98.77 84.27)">y</text><rect class="cls-2" x="136.9" y="59.73" width="26.1" height="26.1"/><text class="cls-4" transform="translate(136.91 84.27)">j</text><rect class="cls-2" x="21.99" y="104.93" width="26.1" height="26.1"/><text class="cls-3" transform="translate(21.98 128.22)">d</text><rect class="cls-2" x="59.6" y="99.93" width="26.1" height="26.1"/><text class="cls-4" transform="translate(59.63 124.41)">u</text><rect class="cls-2" x="98.8" y="99.93" width="26.1" height="26.1"/><text class="cls-4" transform="translate(98.77 124.41)">n</text><rect class="cls-2" x="136.9" y="99.93" width="26.1" height="26.1"/><text class="cls-4" transform="translate(136.91 124.41)">o</text><rect class="cls-2" x="22.5" y="146.03" width="26.1" height="26.1"/><text class="cls-3" transform="translate(22.5 169.36)">d</text><rect class="cls-2" x="59.6" y="138.03" width="26.1" height="26.1"/><text class="cls-4" transform="translate(59.63 162.55)">x</text><text class="cls-4" transform="translate(60.46 477.9)">x</text><text class="cls-5" transform="translate(20.49 321.61)">g</text><rect class="cls-2" x="98.8" y="138.03" width="26.1" height="26.1"/><text class="cls-4" transform="translate(98.77 162.55)">n</text><rect class="cls-2" x="136.9" y="138.03" width="26.1" height="26.1"/><text class="cls-4" transform="translate(136.91 162.55)">e</text><text class="cls-4" transform="translate(20.49 285.46)">e</text><rect class="cls-2" x="23.09" y="183.23" width="26.1" height="26.1"/><text class="cls-3" transform="translate(23.1 206.5)">e</text><rect class="cls-2" x="59.6" y="178.23" width="26.1" height="26.1"/><text class="cls-4" transform="translate(59.63 202.69)">u</text><rect class="cls-2" x="98.8" y="178.23" width="26.1" height="26.1"/><text class="cls-4" transform="translate(98.77 202.69)">n</text><rect class="cls-2" x="136.9" y="178.23" width="26.1" height="26.1"/><text class="cls-4" transform="translate(136.91 202.69)">h</text><rect class="cls-2" x="22.5" y="222.33" width="26.1" height="26.1"/><text class="cls-3" transform="translate(22.5 245.63)">n</text><rect class="cls-2" x="59.6" y="216.33" width="26.1" height="26.1"/><text class="cls-4" transform="translate(59.63 240.82)">b</text><rect class="cls-2" x="98.8" y="216.33" width="26.1" height="26.1"/><text class="cls-4" transform="translate(98.77 240.82)">f</text><text class="cls-4" transform="translate(64.86 397.38)">f</text><rect class="cls-2" x="136.9" y="216.33" width="26.1" height="26.1"/><text class="cls-4" transform="translate(136.91 240.82)">r</text><text class="cls-4" transform="translate(64.49 359.25)">r</text><rect class="cls-2" x="59.6" y="256.43" width="26.1" height="26.1"/><text class="cls-4" transform="translate(59.63 280.97)">n</text><rect class="cls-2" x="98.8" y="256.43" width="26.1" height="26.1"/><text class="cls-4" transform="translate(98.77 280.97)">d</text><rect class="cls-2" x="136.9" y="256.43" width="26.1" height="26.1"/><text class="cls-4" transform="translate(136.91 280.97)">t</text><rect class="cls-2" x="59.6" y="298.33" width="26.1" height="26.1"/><text class="cls-3" transform="translate(59.63 321.61)">e</text><rect class="cls-2" x="136.9" y="294.63" width="26.1" height="26.1"/><rect class="cls-2" x="20.5" y="334.73" width="26.1" height="26.1"/><text class="cls-4" transform="translate(20.49 359.25)">n</text><g class="cls-6"><rect class="cls-2" x="98.2" y="335.73" width="38.2" height="35.6"/><text class="cls-7" transform="translate(98.2 360.26)">u</text></g><rect class="cls-2" x="136.9" y="334.73" width="26.1" height="26.1"/><text class="cls-4" transform="translate(136.91 359.25)">y</text><rect class="cls-2" x="20.5" y="372.83" width="26.1" height="26.1"/><text class="cls-4" transform="translate(20.49 397.38)">b</text><rect class="cls-2" x="95.01" y="298.33" width="26.1" height="26.1"/><text class="cls-3" transform="translate(95.04 321.69)">m</text><g class="cls-6"><rect class="cls-2" x="100.3" y="374.63" width="34.3" height="35.9"/><text class="cls-7" transform="translate(100.26 399.1)">k</text></g><rect class="cls-2" x="136.9" y="372.83" width="26.1" height="26.1"/><text class="cls-4" transform="translate(136.91 397.38)">x</text><rect class="cls-2" x="20.5" y="413.03" width="26.1" height="26.1"/><text class="cls-4" transform="translate(20.49 437.52)">b</text><rect class="cls-2" x="130.42" y="298.33" width="26.1" height="26.1"/><text class="cls-3" transform="translate(130.46 321.63)">s</text><g class="cls-6"><rect class="cls-2" x="100.3" y="414.73" width="33.3" height="33.9"/><text class="cls-7" transform="translate(100.26 439.25)">j</text></g><rect class="cls-2" x="136.9" y="413.03" width="26.1" height="26.1"/><text class="cls-4" transform="translate(136.91 437.52)">h</text><rect class="cls-2" x="20.5" y="451.13" width="26.1" height="26.1"/><text class="cls-4" transform="translate(20.49 475.66)">g</text><rect class="cls-2" x="98.8" y="451.13" width="26.1" height="26.1"/><text class="cls-4" transform="translate(98.77 475.66)">a</text><rect class="cls-2" x="136.9" y="451.13" width="26.1" height="26.1"/><text class="cls-4" transform="translate(136.91 475.66)">g</text><text class="cls-4" transform="translate(60.01 433.88)">g</text><rect class="cls-2" x="20.5" y="491.33" width="26.1" height="26.1"/><text class="cls-4" transform="translate(20.49 515.8)">h</text><rect class="cls-2" x="59.6" y="491.33" width="26.1" height="26.1"/><text class="cls-4" transform="translate(59.63 515.8)">y</text><rect class="cls-2" x="98.8" y="491.33" width="26.1" height="26.1"/><text class="cls-4" transform="translate(98.77 515.8)">e</text><rect class="cls-2" x="136.9" y="491.33" width="26.1" height="26.1"/><text class="cls-4" transform="translate(136.91 515.8)">v</text><rect class="cls-2" x="20.5" y="529.43" width="26.1" height="26.1"/><text class="cls-4" transform="translate(20.49 553.94)">v</text><rect class="cls-2" x="59.6" y="529.43" width="26.1" height="26.1"/><text class="cls-4" transform="translate(59.63 553.94)">n</text><rect class="cls-2" x="98.8" y="529.43" width="26.1" height="26.1"/><text class="cls-4" transform="translate(98.77 553.94)">g</text><rect class="cls-2" x="136.9" y="529.43" width="26.1" height="26.1"/><text class="cls-4" transform="translate(136.91 553.94)"><tspan xml:space="preserve">a     </tspan></text><ellipse class="cls-8" cx="33.55" cy="134.46" rx="27.75" ry="132.46"/><ellipse class="cls-8" cx="83.73" cy="309.33" rx="81.37" ry="20.07"/></g></g></svg>