<svg xmlns="http://www.w3.org/2000/svg" viewBox="0 0 203.31 582"><defs><style>.cls-1{fill:#e0dbc1;}.cls-2,.cls-9{fill:none;}.cls-3{opacity:0.64;}.cls-4,.cls-5,.cls-8{font-size:34.12px;font-family:Helvetica;}.cls-5,.cls-6,.cls-8{isolation:isolate;}.cls-5{opacity:0.53;}.cls-6{font-size:34px;fill:#020000;font-family:Boldfinger;}.cls-7{opacity:0.58;}.cls-9{stroke:#ff6700;stroke-miterlimit:10;stroke-width:4px;}</style></defs><g id="Layer_2" data-name="Layer 2"><g id="Layer_1-2" data-name="Layer 1"><rect class="cls-1" width="170" height="582"/><rect class="cls-2" x="20.5" y="24.5" width="26.1" height="26.1"/><g class="cls-3"><text class="cls-4" transform="translate(20.49 47.81)">c</text></g><rect class="cls-2" x="59.6" y="19.5" width="26.1" height="26.1"/><text class="cls-5" transform="translate(59.63 44)">g</text><rect class="cls-2" x="98.8" y="19.5" width="26.1" height="26.1"/><text class="cls-5" transform="translate(98.77 44)">d</text><rect class="cls-2" x="136.9" y="19.5" width="26.1" height="26.1"/><text class="cls-5" transform="translate(136.91 44)">f</text><rect class="cls-2" x="20.5" y="62.6" width="26.1" height="26.1"/><g class="cls-3"><text class="cls-4" transform="translate(20.49 85.94)">k</text></g><rect class="cls-2" x="59.6" y="57.6" width="26.1" height="26.1"/><text class="cls-5" transform="translate(59.63 82.13)">i</text><rect class="cls-2" x="98.8" y="57.6" width="26.1" height="26.1"/><text class="cls-5" transform="translate(98.77 82.13)">y</text><rect class="cls-2" x="136.9" y="57.6" width="26.1" height="26.1"/><text class="cls-5" transform="translate(136.91 82.13)">j</text><rect class="cls-2" x="25.5" y="102.8" width="26.1" height="26.1"/><g class="cls-3"><text class="cls-4" transform="translate(25.49 126.09)">l</text></g><rect class="cls-2" x="59.6" y="97.8" width="26.1" height="26.1"/><text class="cls-5" transform="translate(59.63 122.28)">u</text><rect class="cls-2" x="98.8" y="97.8" width="26.1" height="26.1"/><text class="cls-5" transform="translate(98.77 122.28)">n</text><rect class="cls-2" x="136.9" y="97.8" width="26.1" height="26.1"/><text class="cls-5" transform="translate(136.91 122.28)">o</text><rect class="cls-2" x="20.5" y="136.92" width="26.1" height="26.1"/><g class="cls-3"><text class="cls-4" transform="translate(20.5 160.24)">e</text></g><rect class="cls-2" x="59.6" y="135.9" width="26.1" height="26.1"/><text class="cls-5" transform="translate(59.63 160.41)">x</text><rect class="cls-2" x="98.8" y="135.9" width="26.1" height="26.1"/><text class="cls-5" transform="translate(98.77 160.41)">n</text><rect class="cls-2" x="136.9" y="135.9" width="26.1" height="26.1"/><text class="cls-5" transform="translate(136.91 160.41)">e</text><rect class="cls-2" x="20.5" y="181.1" width="26.1" height="26.1"/><g class="cls-3"><text class="cls-4" transform="translate(20.51 204.36)">u</text></g><rect class="cls-2" x="59.6" y="176.1" width="26.1" height="26.1"/><text class="cls-5" transform="translate(59.63 200.55)">u</text><rect class="cls-2" x="98.8" y="176.1" width="26.1" height="26.1"/><text class="cls-5" transform="translate(98.77 200.55)">n</text><rect class="cls-2" x="136.9" y="176.1" width="26.1" height="26.1"/><text class="cls-5" transform="translate(136.91 200.55)">h</text><rect class="cls-2" x="26.5" y="220.2" width="26.1" height="26.1"/><g class="cls-3"><text class="cls-4" transform="translate(26.5 243.5)">r</text></g><rect class="cls-2" x="59.6" y="214.2" width="26.1" height="26.1"/><text class="cls-5" transform="translate(59.63 238.69)">b</text><rect class="cls-2" x="98.8" y="214.2" width="26.1" height="26.1"/><text class="cls-5" transform="translate(98.77 238.69)">f</text><rect class="cls-2" x="136.9" y="214.2" width="26.1" height="26.1"/><text class="cls-5" transform="translate(136.91 238.69)">r</text><rect class="cls-2" x="20.5" y="258.47" width="26.1" height="26.1"/><g class="cls-3"><text class="cls-4" transform="translate(20.5 281.81)">d</text></g><rect class="cls-2" x="59.6" y="254.3" width="26.1" height="26.1"/><text class="cls-5" transform="translate(59.63 278.83)">n</text><rect class="cls-2" x="98.8" y="254.3" width="26.1" height="26.1"/><text class="cls-5" transform="translate(98.77 278.83)">d</text><rect class="cls-2" x="136.9" y="254.3" width="26.1" height="26.1"/><text class="cls-5" transform="translate(136.91 278.83)">t</text><rect class="cls-2" x="22.51" y="297.89" width="26.1" height="26.1"/><g class="cls-3"><text class="cls-4" transform="translate(22.5 321.17)">s</text></g><rect class="cls-2" x="59.6" y="301.6" width="26.1" height="26.1"/><text class="cls-6" transform="translate(59.63 324.87)">s</text><g class="cls-7"><rect class="cls-2" x="100.8" y="295" width="36.6" height="38"/><text class="cls-8" transform="translate(100.81 319.48)">t</text></g><rect class="cls-2" x="136.9" y="292.5" width="26.1" height="26.1"/><text class="cls-5" transform="translate(136.91 316.97)">o</text><rect class="cls-2" x="20.5" y="332.6" width="26.1" height="26.1"/><text class="cls-5" transform="translate(20.49 357.11)">n</text><rect class="cls-2" x="62" y="337" width="27" height="26.7"/><text class="cls-6" transform="translate(62 360.31)">p </text><g class="cls-7"><rect class="cls-2" x="98.2" y="333.6" width="38.2" height="35.6"/><text class="cls-8" transform="translate(98.2 358.13)">u</text></g><rect class="cls-2" x="136.9" y="332.6" width="26.1" height="26.1"/><text class="cls-5" transform="translate(136.91 357.11)">y</text><rect class="cls-2" x="20.5" y="370.7" width="26.1" height="26.1"/><text class="cls-5" transform="translate(20.49 395.25)">b</text><rect class="cls-2" x="58.6" y="375.94" width="26.1" height="26.1"/><text class="cls-6" transform="translate(58.63 399.3)">o</text><g class="cls-7"><rect class="cls-2" x="100.3" y="372.5" width="34.3" height="35.9"/><text class="cls-8" transform="translate(100.26 396.97)">k</text></g><rect class="cls-2" x="136.9" y="370.7" width="26.1" height="26.1"/><text class="cls-5" transform="translate(136.91 395.25)">x</text><rect class="cls-2" x="20.5" y="410.9" width="26.1" height="26.1"/><text class="cls-5" transform="translate(20.49 435.39)">b</text><rect class="cls-2" x="59.6" y="416.9" width="26.1" height="26.1"/><text class="cls-6" transform="translate(59.63 440.2)">r</text><g class="cls-7"><rect class="cls-2" x="100.3" y="412.6" width="33.3" height="33.9"/><text class="cls-8" transform="translate(100.26 437.11)">j</text></g><rect class="cls-2" x="136.9" y="410.9" width="26.1" height="26.1"/><text class="cls-5" transform="translate(136.91 435.39)">h</text><rect class="cls-2" x="20.5" y="449" width="26.1" height="26.1"/><text class="cls-5" transform="translate(20.49 473.53)">g</text><rect class="cls-2" x="63.6" y="457" width="26.1" height="26.1"/><text class="cls-6" transform="translate(60.6 480.12)">t</text><rect class="cls-2" x="98.8" y="449" width="26.1" height="26.1"/><text class="cls-5" transform="translate(98.77 473.53)">a</text><rect class="cls-2" x="136.9" y="449" width="26.1" height="26.1"/><text class="cls-5" transform="translate(136.91 473.53)">g</text><rect class="cls-2" x="20.5" y="489.2" width="26.1" height="26.1"/><text class="cls-5" transform="translate(20.49 513.67)">h</text><rect class="cls-2" x="59.6" y="489.2" width="26.1" height="26.1"/><text class="cls-5" transform="translate(59.63 513.67)">y</text><rect class="cls-2" x="98.8" y="489.2" width="26.1" height="26.1"/><text class="cls-5" transform="translate(98.77 513.67)">e</text><rect class="cls-2" x="136.9" y="489.2" width="26.1" height="26.1"/><text class="cls-5" transform="translate(136.91 513.67)">v</text><rect class="cls-2" x="20.5" y="527.3" width="26.1" height="26.1"/><text class="cls-5" transform="translate(20.49 551.8)">v</text><rect class="cls-2" x="59.6" y="527.3" width="26.1" height="26.1"/><text class="cls-5" transform="translate(59.63 551.8)">n</text><rect class="cls-2" x="98.8" y="527.3" width="26.1" height="26.1"/><text class="cls-5" transform="translate(98.77 551.8)">g</text><rect class="cls-2" x="136.9" y="527.3" width="26.1" height="26.1"/><text class="cls-5" transform="translate(136.91 551.8)"><tspan xml:space="preserve">a     </tspan></text><ellipse class="cls-9" cx="71.65" cy="389.84" rx="22.13" ry="112.41"/></g></g></svg>