<svg xmlns="http://www.w3.org/2000/svg" viewBox="0 0 172 582"><defs><style>.cls-1{fill:#e0dbc1;}.cls-10,.cls-2{fill:none;}.cls-3,.cls-5,.cls-6,.cls-7,.cls-8{isolation:isolate;}.cls-3,.cls-4{opacity:0.53;}.cls-3,.cls-5,.cls-6{font-size:34.12px;font-family:Helvetica;}.cls-6{fill:#606060;}.cls-7{font-size:34px;fill:#020000;font-family:Boldfinger;}.cls-9{opacity:0.55;}.cls-10{stroke:#ff6700;stroke-miterlimit:10;stroke-width:4px;}</style></defs><g id="Layer_2" data-name="Layer 2"><g id="Layer_1-2" data-name="Layer 1"><rect class="cls-1" width="170" height="582"/><rect class="cls-2" x="20.5" y="19.5" width="26.1" height="26.1"/><text class="cls-3" transform="translate(20.49 44)">a</text><rect class="cls-2" x="59.6" y="19.5" width="26.1" height="26.1"/><text class="cls-3" transform="translate(59.63 44)">g</text><rect class="cls-2" x="98.8" y="19.5" width="26.1" height="26.1"/><text class="cls-3" transform="translate(98.77 44)">d</text><rect class="cls-2" x="136.9" y="19.5" width="26.1" height="26.1"/><text class="cls-3" transform="translate(136.91 44)">f</text><rect class="cls-2" x="20.5" y="57.6" width="26.1" height="26.1"/><text class="cls-3" transform="translate(20.49 82.13)">s</text><rect class="cls-2" x="59.6" y="57.6" width="26.1" height="26.1"/><text class="cls-3" transform="translate(59.63 82.13)">i</text><rect class="cls-2" x="98.8" y="57.6" width="26.1" height="26.1"/><text class="cls-3" transform="translate(98.77 82.13)">y</text><rect class="cls-2" x="136.9" y="57.6" width="26.1" height="26.1"/><text class="cls-3" transform="translate(136.91 82.13)">j</text><g class="cls-4"><rect class="cls-2" x="27.5" y="96.8" width="26.1" height="26.1"/><text class="cls-5" transform="translate(27.49 121.28)">j</text></g><rect class="cls-2" x="59.6" y="97.8" width="26.1" height="26.1"/><text class="cls-3" transform="translate(59.63 122.28)">u</text><rect class="cls-2" x="98.8" y="97.8" width="26.1" height="26.1"/><text class="cls-3" transform="translate(98.77 122.28)">n</text><rect class="cls-2" x="136.9" y="97.8" width="26.1" height="26.1"/><text class="cls-3" transform="translate(136.91 122.28)">o</text><rect class="cls-2" x="20.5" y="140.9" width="26.1" height="26.1"/><text class="cls-3" transform="translate(20.49 165.41)">k</text><rect class="cls-2" x="59.6" y="135.9" width="26.1" height="26.1"/><text class="cls-6" transform="translate(59.63 160.41)">g</text><rect class="cls-2" x="98.8" y="135.9" width="26.1" height="26.1"/><text class="cls-3" transform="translate(98.77 160.41)">n</text><rect class="cls-2" x="136.9" y="141.9" width="26.1" height="26.1"/><text class="cls-7" transform="translate(136.91 165.22)">c</text><rect class="cls-2" x="23.5" y="181.1" width="26.1" height="26.1"/><text class="cls-3" transform="translate(23.51 205.56)">b</text><rect class="cls-2" x="59.6" y="176.1" width="26.1" height="26.1"/><text class="cls-6" transform="translate(59.63 200.55)">a</text><rect class="cls-2" x="98.8" y="176.1" width="26.1" height="26.1"/><text class="cls-6" transform="translate(98.77 200.55)">r</text><rect class="cls-2" x="136.9" y="182.1" width="26.1" height="26.1"/><text class="cls-7" transform="translate(136.91 205.36)">u</text><rect class="cls-2" x="23.5" y="214.2" width="26.1" height="26.1"/><text class="cls-3" transform="translate(23.5 238.69)">q</text><rect class="cls-2" x="59.6" y="214.2" width="26.1" height="26.1"/><text class="cls-6" transform="translate(59.63 238.69)">j</text><rect class="cls-2" x="98.8" y="214.2" width="26.1" height="26.1"/><text class="cls-3" transform="translate(98.77 238.69)">i</text><rect class="cls-2" x="140.64" y="220.2" width="26.1" height="26.1"/><text class="cls-7" transform="translate(140.65 243.5)">l</text><rect class="cls-2" x="20.5" y="254.3" width="26.1" height="26.1"/><text class="cls-3" transform="translate(20.49 278.83)">w</text><rect class="cls-2" x="59.6" y="254.3" width="26.1" height="26.1"/><text class="cls-6" transform="translate(59.63 278.83)">s</text><rect class="cls-2" x="98.8" y="254.3" width="26.1" height="26.1"/><text class="cls-3" transform="translate(98.77 278.83)">d</text><rect class="cls-2" x="136.9" y="260.3" width="26.1" height="26.1"/><text class="cls-8"/><rect class="cls-2" x="20.5" y="292.5" width="26.1" height="26.1"/><text class="cls-3" transform="translate(20.49 316.97)">k</text><rect class="cls-2" x="59.6" y="292.5" width="26.1" height="26.1"/><text class="cls-6" transform="translate(59.63 316.97)">f</text><g class="cls-9"><rect class="cls-2" x="99.8" y="296" width="36.6" height="38"/><text class="cls-5" transform="translate(99.81 320.48)">b</text></g><rect class="cls-2" x="136.9" y="298.26" width="26.1" height="26.1"/><text class="cls-7" transform="translate(136.91 321.5)">n</text><rect class="cls-2" x="142.76" y="260.3" width="26.1" height="26.1"/><text class="cls-7" transform="translate(142.76 283.54)">i</text><rect class="cls-2" x="20.5" y="332.6" width="26.1" height="26.1"/><text class="cls-3" transform="translate(20.49 357.11)">n</text><text class="cls-3" transform="translate(138.1 473.53)">n</text><rect class="cls-2" x="59.6" y="332.6" width="25.4" height="27.4"/><text class="cls-6" transform="translate(59.63 357.11)">y </text><g class="cls-9"><rect class="cls-2" x="97.2" y="334.6" width="38.2" height="35.6"/><text class="cls-5" transform="translate(97.2 359.13)">a</text></g><rect class="cls-2" x="136.9" y="332.6" width="26.1" height="26.1"/><text class="cls-7" transform="translate(136.4 362.5)">a</text><rect class="cls-2" x="20.5" y="370.7" width="26.1" height="26.1"/><text class="cls-3" transform="translate(20.49 395.25)">b</text><rect class="cls-2" x="59.6" y="370.7" width="26.1" height="26.1"/><text class="cls-6" transform="translate(59.63 395.25)">c</text><g class="cls-9"><rect class="cls-2" x="99.3" y="373.5" width="34.3" height="35.9"/><text class="cls-5" transform="translate(99.26 397.97)">k</text></g><rect class="cls-2" x="136.9" y="370.7" width="26.1" height="26.1"/><text class="cls-7" transform="translate(136.4 399)">r</text><rect class="cls-2" x="20.5" y="410.9" width="26.1" height="26.1"/><text class="cls-3" transform="translate(20.49 435.39)">b</text><rect class="cls-2" x="59.6" y="410.9" width="26.1" height="26.1"/><text class="cls-6" transform="translate(59.63 435.39)">x</text><g class="cls-9"><rect class="cls-2" x="99.3" y="412.6" width="33.3" height="33.9"/><text class="cls-5" transform="translate(99.26 437.11)">s</text></g><rect class="cls-2" x="136.9" y="410.9" width="26.1" height="26.1"/><text class="cls-7" transform="translate(136.36 437.11)">y</text><rect class="cls-2" x="20.5" y="449" width="26.1" height="26.1"/><text class="cls-3" transform="translate(20.49 473.53)">g</text><rect class="cls-2" x="59.6" y="449" width="26.1" height="26.1"/><text class="cls-6" transform="translate(59.63 473.53)">z</text><rect class="cls-2" x="98.8" y="449" width="26.1" height="26.1"/><text class="cls-3" transform="translate(98.77 473.53)">a</text><rect class="cls-2" x="136.9" y="449" width="26.1" height="26.1"/><rect class="cls-2" x="20.5" y="489.2" width="26.1" height="26.1"/><text class="cls-3" transform="translate(20.49 513.67)">h</text><rect class="cls-2" x="59.6" y="489.2" width="26.1" height="26.1"/><text class="cls-3" transform="translate(59.63 513.67)">y</text><rect class="cls-2" x="98.8" y="489.2" width="26.1" height="26.1"/><text class="cls-3" transform="translate(98.77 513.67)">e</text><rect class="cls-2" x="136.9" y="489.2" width="26.1" height="26.1"/><text class="cls-3" transform="translate(136.91 513.67)">v</text><rect class="cls-2" x="20.5" y="527.3" width="26.1" height="26.1"/><text class="cls-3" transform="translate(20.49 551.8)">h</text><rect class="cls-2" x="59.6" y="527.3" width="26.1" height="26.1"/><text class="cls-3" transform="translate(59.63 551.8)">n</text><rect class="cls-2" x="98.8" y="527.3" width="26.1" height="26.1"/><text class="cls-3" transform="translate(98.77 551.8)">l</text><rect class="cls-2" x="136.9" y="527.3" width="26.1" height="26.1"/><text class="cls-3" transform="translate(136.91 551.8)">r</text><ellipse class="cls-10" cx="146.15" cy="285.95" rx="23.85" ry="163.05"/></g></g></svg>